# xmcd CD database file
#
# Track frame offsets:
#	150
#	28023
#	55570
#	97964
#	120884
#	146387
#	166533
#	195151
#	207350
#
# Disc length: 3148 seconds
#
# Revision: 0
# Processed by: cddbd v1.4PL0 Copyright (c) Steve Scherf et al.
# Submitted via: CDex 1.50
#
DISCID=600c4a09
DTITLE=Hans Christian - Surrender
DYEAR=2003
DGENRE=New Age
TTITLE0=Suurender
TTITLE1=Tears for Ma
TTITLE2=Shades of Blue
TTITLE3=Shrouded
TTITLE4=Capricorn Child
TTITLE5=Reflections
TTITLE6=Matritamah
TTITLE7=Vulkanmusik
TTITLE8=Rapture
EXTD=YEAR: 2003
EXTT0=
EXTT1=
EXTT2=
EXTT3=
EXTT4=
EXTT5=
EXTT6=
EXTT7=
EXTT8=
PLAYORDER=
